<svg xmlns="http://www.w3.org/2000/svg" width="60" height="60" viewBox="4 4 16 16" fill="none">
  <path d="M19.8319 12.1679C19.8319 11.4141 19.7285 10.6848 19.5363 9.99528C19.358 9.35769 19.3776 8.68099 19.5698 8.04731C19.9101 6.92524 19.6045 5.65677 18.6791 4.81578C17.7576 3.97814 16.4746 3.79151 15.3928 4.22849C14.7748 4.47771 14.1008 4.54029 13.4431 4.43245C13.0542 4.36874 12.6552 4.33577 12.249 4.33577C8.06133 4.33522 4.66663 7.84223 4.66663 12.1679C4.66663 13.4716 4.97508 14.7004 5.52047 15.7816C5.67582 16.0895 5.70935 16.4449 5.61044 16.7746C5.4523 17.3016 5.57076 17.8956 5.9731 18.3264C6.37264 18.7544 6.95268 18.9137 7.48577 18.7964C7.82384 18.722 8.17589 18.7846 8.47373 18.9612C9.58518 19.6223 10.8743 20 12.249 20C13.2476 20 14.2014 19.8005 15.0748 19.4378C15.3788 19.3116 15.7158 19.2993 16.0326 19.3887C16.9362 19.644 17.9471 19.3848 18.6131 18.636C19.2172 17.957 19.3882 17.044 19.1474 16.2326C19.0557 15.9241 19.0775 15.5916 19.2027 15.2955C19.6073 14.3377 19.8319 13.2799 19.8319 12.1679ZM11.5108 18.7377C10.6497 18.7377 9.83161 18.532 9.094 18.1632C8.82857 18.0302 8.68775 17.7402 8.7263 17.4463C8.78721 16.9886 8.64975 16.5081 8.31 16.1437C7.95796 15.7665 7.46565 15.5983 6.989 15.6436C6.70233 15.671 6.42684 15.5207 6.30167 15.2608C5.85855 14.3388 5.60709 13.286 5.60709 12.1673C5.60709 8.53905 8.24965 5.59754 11.5097 5.59754C11.8628 5.59754 12.2082 5.63219 12.544 5.69812C13.1023 5.80821 13.4873 6.31895 13.4426 6.88557C13.3688 7.81932 13.7119 8.77598 14.4585 9.45492C14.9988 9.94611 15.6632 10.2132 16.3388 10.2618C16.8658 10.2998 17.2871 10.7156 17.3536 11.2397C17.3922 11.5426 17.4117 11.8522 17.4117 12.1668C17.4117 12.6272 17.3693 13.0765 17.2882 13.5101C17.1971 13.9985 16.8054 14.3779 16.3154 14.4573C15.7616 14.5473 15.2341 14.8205 14.8317 15.2726C14.3557 15.8073 14.1483 16.488 14.1997 17.1496C14.2405 17.6776 13.9477 18.1789 13.4543 18.3705C12.8452 18.6075 12.1903 18.736 11.5091 18.736L11.5108 18.7377Z" fill="url(#paint0_linear_4204_4000)"/>
  <defs>
  <linearGradient id="paint0_linear_4204_4000" x1="12.2493" y1="20" x2="12.2493" y2="4" gradientUnits="userSpaceOnUse">
  <stop stop-color="#E92E2F"/>
  <stop offset="1" stop-color="#FF6126"/>
  </linearGradient>
  </defs>
</svg>